<?xml version="1.0" encoding="UTF-8" standalone="no"?><svg xmlns="http://www.w3.org/2000/svg" xmlns:xlink="http://www.w3.org/1999/xlink" contentScriptType="application/ecmascript" contentStyleType="text/css" height="630px" preserveAspectRatio="none" style="width:511px;height:630px;" version="1.1" viewBox="0 0 511 630" width="511px" zoomAndPan="magnify"><defs/><g><ellipse cx="256.25" cy="20" fill="#010101" rx="10" ry="10" style="stroke: none; stroke-width: 1.0;"/><rect fill="#FEFEFD" height="33.9688" rx="12.5" ry="12.5" style="stroke: #010101; stroke-width: 1.5;" width="106" x="203.25" y="50"/><text fill="#010101" font-family="Atkinson Hyperlegible" font-size="12" lengthAdjust="spacingAndGlyphs" textLength="86" x="213.25" y="71.1387">Read jobs.yml</text><rect fill="#FEFEFD" height="47.9375" rx="12.5" ry="12.5" style="stroke: #010101; stroke-width: 1.5;" width="181" x="165.75" y="103.9688"/><text fill="#010101" font-family="Atkinson Hyperlegible" font-size="12" lengthAdjust="spacingAndGlyphs" textLength="131" x="175.75" y="125.1074">Parse each job's SQL</text><text fill="#010101" font-family="Atkinson Hyperlegible" font-size="12" lengthAdjust="spacingAndGlyphs" textLength="161" x="175.75" y="139.0762">into a target and sources</text><rect fill="#FEFEFD" height="47.9375" rx="12.5" ry="12.5" style="stroke: #010101; stroke-width: 1.5;" width="142" x="185.25" y="215.9063"/><text fill="#010101" font-family="Atkinson Hyperlegible" font-size="12" lengthAdjust="spacingAndGlyphs" textLength="122" x="195.25" y="237.0449">Take the next edge</text><text fill="#010101" font-family="Atkinson Hyperlegible" font-size="12" lengthAdjust="spacingAndGlyphs" textLength="84" x="195.25" y="251.0137">source -&gt; job</text><rect fill="#FEFEFD" height="33.9688" rx="12.5" ry="12.5" style="stroke: #010101; stroke-width: 1.5;" width="196" x="158.25" y="333.8555"/><text fill="#010101" font-family="Atkinson Hyperlegible" font-size="12" lengthAdjust="spacingAndGlyphs" textLength="176" x="168.25" y="354.9941">Record an ordering problem</text><polygon fill="#FEFEFD" points="193.25,283.8438,319.25,283.8438,331.25,296.6484,319.25,309.4531,193.25,309.4531,181.25,296.6484,193.25,283.8438" style="stroke: #010101; stroke-width: 1.5;"/><text fill="#030303" font-family="Atkinson Hyperlegible" font-size="11" lengthAdjust="spacingAndGlyphs" textLength="14" x="260.25" y="319.6636">no</text><text fill="#010101" font-family="Atkinson Hyperlegible" font-size="11" lengthAdjust="spacingAndGlyphs" textLength="126" x="193.25" y="294.0542">Does the job run after</text><text fill="#010101" font-family="Atkinson Hyperlegible" font-size="11" lengthAdjust="spacingAndGlyphs" textLength="114" x="201.25" y="306.8589">the source's writer?</text><text fill="#030303" font-family="Atkinson Hyperlegible" font-size="11" lengthAdjust="spacingAndGlyphs" textLength="20" x="331.25" y="294.0542">yes</text><polygon fill="#FEFEFD" points="256.25,387.8242,268.25,399.8242,256.25,411.8242,244.25,399.8242,256.25,387.8242" style="stroke: #010101; stroke-width: 1.5;"/><polygon fill="#FEFEFD" points="256.25,171.9063,268.25,183.9063,256.25,195.9063,244.25,183.9063,256.25,171.9063" style="stroke: #010101; stroke-width: 1.5;"/><polygon fill="#FEFEFD" points="219.75,431.8242,292.75,431.8242,304.75,443.8242,292.75,455.8242,219.75,455.8242,207.75,443.8242,219.75,431.8242" style="stroke: #010101; stroke-width: 1.5;"/><text fill="#010101" font-family="Atkinson Hyperlegible" font-size="11" lengthAdjust="spacingAndGlyphs" textLength="73" x="219.75" y="447.6323">More edges?</text><text fill="#030303" font-family="Atkinson Hyperlegible" font-size="11" lengthAdjust="spacingAndGlyphs" textLength="20" x="304.75" y="441.23">yes</text><polygon fill="#FEFEFD" points="214.25,497.2231,298.25,497.2231,310.25,509.2231,298.25,521.2231,214.25,521.2231,202.25,509.2231,214.25,497.2231" style="stroke: #010101; stroke-width: 1.5;"/><text fill="#010101" font-family="Atkinson Hyperlegible" font-size="11" lengthAdjust="spacingAndGlyphs" textLength="84" x="214.25" y="513.0313">Any problems?</text><text fill="#030303" font-family="Atkinson Hyperlegible" font-size="11" lengthAdjust="spacingAndGlyphs" textLength="20" x="182.25" y="506.6289">yes</text><text fill="#030303" font-family="Atkinson Hyperlegible" font-size="11" lengthAdjust="spacingAndGlyphs" textLength="14" x="310.25" y="506.6289">no</text><path d="M175,531.2231 L175,547.356 L155,551.356 L175,555.356 L175,571.4888 A0,0 0 0 0 175,571.4888 L340,571.4888 A0,0 0 0 0 340,571.4888 L340,541.2231 L330,531.2231 L175,531.2231 A0,0 0 0 0 175,531.2231 " fill="#FEFEFD" style="stroke: #030303; stroke-width: 1.0;"/><path d="M330,531.2231 L330,541.2231 L340,541.2231 L330,531.2231 " fill="#FEFEFD" style="stroke: #030303; stroke-width: 1.0;"/><text fill="#010101" font-family="Atkinson Hyperlegible" font-size="13" lengthAdjust="spacingAndGlyphs" textLength="115" x="181" y="548.29">Lists each job and</text><text fill="#010101" font-family="Atkinson Hyperlegible" font-size="13" lengthAdjust="spacingAndGlyphs" textLength="144" x="181" y="563.4229">the table it reads early</text><rect fill="#FEFEFD" height="33.9688" rx="12.5" ry="12.5" style="stroke: #010101; stroke-width: 1.5;" width="145" x="10" y="534.3716"/><text fill="#010101" font-family="Atkinson Hyperlegible" font-size="12" lengthAdjust="spacingAndGlyphs" textLength="125" x="20" y="555.5103">Fail the pull request</text><ellipse cx="82.5" cy="608.7856" fill="#FFFFFF" rx="11" ry="11" style="stroke: #010101; stroke-width: 1.0;"/><ellipse cx="82.5" cy="608.7856" fill="#010101" rx="6" ry="6" style="stroke: #808080; stroke-width: 1.0;"/><rect fill="#FEFEFD" height="33.9688" rx="12.5" ry="12.5" style="stroke: #010101; stroke-width: 1.5;" width="140" x="360" y="531.2231"/><text fill="#010101" font-family="Atkinson Hyperlegible" font-size="12" lengthAdjust="spacingAndGlyphs" textLength="120" x="370" y="552.3618">Render lineage.svg</text><ellipse cx="430" cy="602.4888" fill="#FFFFFF" rx="11" ry="11" style="stroke: #010101; stroke-width: 1.0;"/><ellipse cx="430" cy="602.4888" fill="#010101" rx="6" ry="6" style="stroke: #808080; stroke-width: 1.0;"/><line style="stroke: #010101; stroke-width: 1.5;" x1="256.25" x2="256.25" y1="30" y2="50"/><polygon fill="#010101" points="252.25,40,256.25,50,260.25,40,256.25,44" style="stroke: #010101; stroke-width: 1.0;"/><line style="stroke: #010101; stroke-width: 1.5;" x1="256.25" x2="256.25" y1="83.9688" y2="103.9688"/><polygon fill="#010101" points="252.25,93.9688,256.25,103.9688,260.25,93.9688,256.25,97.9688" style="stroke: #010101; stroke-width: 1.0;"/><line style="stroke: #020202; stroke-width: 1.5;" x1="256.25" x2="256.25" y1="309.4531" y2="333.8555"/><polygon fill="#020202" points="252.25,323.8555,256.25,333.8555,260.25,323.8555,256.25,327.8555" style="stroke: #020202; stroke-width: 1.0;"/><line style="stroke: #010101; stroke-width: 1.5;" x1="331.25" x2="364.25" y1="296.6484" y2="296.6484"/><polygon fill="#010101" points="360.25,340.4375,364.25,350.4375,368.25,340.4375,364.25,344.4375" style="stroke: #010101; stroke-width: 1.5;"/><line style="stroke: #010101; stroke-width: 1.5;" x1="364.25" x2="364.25" y1="296.6484" y2="399.8242"/><line style="stroke: #010101; stroke-width: 1.5;" x1="364.25" x2="268.25" y1="399.8242" y2="399.8242"/><polygon fill="#010101" points="278.25,395.8242,268.25,399.8242,278.25,403.8242,274.25,399.8242" style="stroke: #010101; stroke-width: 1.0;"/><line style="stroke: #010101; stroke-width: 1.5;" x1="256.25" x2="256.25" y1="367.8242" y2="387.8242"/><polygon fill="#010101" points="252.25,377.8242,256.25,387.8242,260.25,377.8242,256.25,381.8242" style="stroke: #010101; stroke-width: 1.0;"/><line style="stroke: #010101; stroke-width: 1.5;" x1="256.25" x2="256.25" y1="263.8438" y2="283.8438"/><polygon fill="#010101" points="252.25,273.8438,256.25,283.8438,260.25,273.8438,256.25,277.8438" style="stroke: #010101; stroke-width: 1.0;"/><line style="stroke: #010101; stroke-width: 1.5;" x1="256.25" x2="256.25" y1="195.9063" y2="215.9063"/><polygon fill="#010101" points="252.25,205.9063,256.25,215.9063,260.25,205.9063,256.25,209.9063" style="stroke: #010101; stroke-width: 1.0;"/><line style="stroke: #010101; stroke-width: 1.5;" x1="304.75" x2="388.25" y1="443.8242" y2="443.8242"/><polygon fill="#010101" points="384.25,318.5664,388.25,308.5664,392.25,318.5664,388.25,314.5664" style="stroke: #010101; stroke-width: 1.5;"/><line style="stroke: #010101; stroke-width: 1.5;" x1="388.25" x2="388.25" y1="183.9063" y2="443.8242"/><line style="stroke: #010101; stroke-width: 1.5;" x1="388.25" x2="268.25" y1="183.9063" y2="183.9063"/><polygon fill="#010101" points="278.25,179.9063,268.25,183.9063,278.25,187.9063,274.25,183.9063" style="stroke: #010101; stroke-width: 1.0;"/><line style="stroke: #010101; stroke-width: 1.5;" x1="256.25" x2="256.25" y1="411.8242" y2="431.8242"/><polygon fill="#010101" points="252.25,421.8242,256.25,431.8242,260.25,421.8242,256.25,425.8242" style="stroke: #010101; stroke-width: 1.0;"/><line style="stroke: #010101; stroke-width: 1.5;" x1="256.25" x2="256.25" y1="151.9063" y2="171.9063"/><polygon fill="#010101" points="252.25,161.9063,256.25,171.9063,260.25,161.9063,256.25,165.9063" style="stroke: #010101; stroke-width: 1.0;"/><line style="stroke: #010101; stroke-width: 1.5;" x1="82.5" x2="82.5" y1="568.3403" y2="597.7856"/><polygon fill="#010101" points="78.5,587.7856,82.5,597.7856,86.5,587.7856,82.5,591.7856" style="stroke: #010101; stroke-width: 1.0;"/><line style="stroke: #010101; stroke-width: 1.5;" x1="430" x2="430" y1="565.1919" y2="591.4888"/><polygon fill="#010101" points="426,581.4888,430,591.4888,434,581.4888,430,585.4888" style="stroke: #010101; stroke-width: 1.0;"/><line style="stroke: #010101; stroke-width: 1.5;" x1="202.25" x2="82.5" y1="509.2231" y2="509.2231"/><line style="stroke: #010101; stroke-width: 1.5;" x1="82.5" x2="82.5" y1="509.2231" y2="534.3716"/><polygon fill="#010101" points="78.5,524.3716,82.5,534.3716,86.5,524.3716,82.5,528.3716" style="stroke: #010101; stroke-width: 1.0;"/><line style="stroke: #010101; stroke-width: 1.5;" x1="310.25" x2="430" y1="509.2231" y2="509.2231"/><line style="stroke: #010101; stroke-width: 1.5;" x1="430" x2="430" y1="509.2231" y2="531.2231"/><polygon fill="#010101" points="426,521.2231,430,531.2231,434,521.2231,430,525.2231" style="stroke: #010101; stroke-width: 1.0;"/><line style="stroke: #010101; stroke-width: 1.5;" x1="256.25" x2="256.25" y1="455.8242" y2="497.2231"/><polygon fill="#010101" points="252.25,487.2231,256.25,497.2231,260.25,487.2231,256.25,491.2231" style="stroke: #010101; stroke-width: 1.0;"/><text fill="#030303" font-family="Atkinson Hyperlegible" font-size="11" lengthAdjust="spacingAndGlyphs" textLength="14" x="260.25" y="477.1289">no</text><!--MD5=[0ad0439c49c10f2e26fa4d9495f7667d]
@startuml
skinparam backgroundColor transparent
skinparam shadowing false
skinparam roundCorner 3
skinparam defaultFontName "Atkinson Hyperlegible"
skinparam defaultFontColor #010101
skinparam ArrowColor #010101
skinparam ArrowFontColor #030303
skinparam ActivityBorderColor #010101
skinparam ActivityBackgroundColor #FEFEFD
skinparam ActivityDiamondBorderColor #010101
skinparam ActivityDiamondBackgroundColor #FEFEFD
skinparam ActivityStartColor #010101
skinparam ActivityEndColor #010101
skinparam NoteBorderColor #030303
skinparam NoteBackgroundColor #FEFEFD

start
:Read jobs.yml;
:Parse each job's SQL
into a target and sources;
repeat
  :Take the next edge
  source -> job;
  if (Does the job run after
  the source's writer?) then (yes)
  else (no)
    -[#020202]->
    :Record an ordering problem;
  endif
repeat while (More edges?) is (yes)
->no;
if (Any problems?) then (yes)
  :Fail the pull request;
  note right: Lists each job and\nthe table it reads early
  stop
else (no)
  :Render lineage.svg;
  stop
endif
@enduml

PlantUML version 1.2020.02(Sun Mar 01 05:22:07 EST 2020)
(GPL source distribution)
Java Runtime: OpenJDK Runtime Environment
JVM: OpenJDK 64-Bit Server VM
Java Version: 25.0.4+7-1-26.04-Ubuntu
Operating System: Linux
Default Encoding: UTF-8
Language: en
Country: null
--></g></svg>